<mxfile host="Electron" agent="Mozilla/5.0 (Windows NT 10.0; Win64; x64) AppleWebKit/537.36 (KHTML, like Gecko) draw.io/24.6.1 Chrome/124.0.6367.207 Electron/30.0.6 Safari/537.36" modified="2025-04-30T10:02:00.702Z" version="24.6.1" etag="r1Gzj1lYkVjPszgJDmSM" type="device">
  <diagram name="Seite-1" id="XNDbbiLUkPlffReXUP9_">
    <mxGraphModel dx="1195" dy="703" grid="1" gridSize="10" guides="1" tooltips="1" connect="1" arrows="1" fold="1" page="1" pageScale="1" pageWidth="827" pageHeight="1169" math="0" shadow="0">
      <root>
        <mxCell id="0" />
        <mxCell id="1" parent="0" />
        <mxCell id="DvSm5--Kq0vd1wlBUZNr-1" value="Role" style="swimlane;fontStyle=1;align=center;verticalAlign=top;childLayout=stackLayout;horizontal=1;startSize=26;horizontalStack=0;resizeParent=1;resizeParentMax=0;resizeLast=0;collapsible=1;marginBottom=0;whiteSpace=wrap;html=1;" parent="1" vertex="1">
          <mxGeometry x="333" y="160" width="180" height="280" as="geometry" />
        </mxCell>
        <mxCell id="DvSm5--Kq0vd1wlBUZNr-2" value="&lt;div&gt;- name: Zeichkette&lt;/div&gt;- description: Zeichenkette&lt;br&gt;- group: Enum&lt;br&gt;- hp_start: ganze Zahl&lt;div&gt;- id: Zeichenkette&lt;/div&gt;&lt;div&gt;- maxPlayerCount: ganze Zahl&lt;div&gt;&lt;br&gt;&lt;/div&gt;&lt;/div&gt;" style="text;strokeColor=none;fillColor=none;align=left;verticalAlign=top;spacingLeft=4;spacingRight=4;overflow=hidden;rotatable=0;points=[[0,0.5],[1,0.5]];portConstraint=eastwest;whiteSpace=wrap;html=1;" parent="DvSm5--Kq0vd1wlBUZNr-1" vertex="1">
          <mxGeometry y="26" width="180" height="94" as="geometry" />
        </mxCell>
        <mxCell id="DvSm5--Kq0vd1wlBUZNr-3" value="" style="line;strokeWidth=1;fillColor=none;align=left;verticalAlign=middle;spacingTop=-1;spacingLeft=3;spacingRight=3;rotatable=0;labelPosition=right;points=[];portConstraint=eastwest;strokeColor=inherit;" parent="DvSm5--Kq0vd1wlBUZNr-1" vertex="1">
          <mxGeometry y="120" width="180" height="8" as="geometry" />
        </mxCell>
        <mxCell id="DvSm5--Kq0vd1wlBUZNr-4" value="+ __init__&lt;br&gt;+ __str__&lt;br&gt;+ action(player, target)&lt;br&gt;+ getdescription()&lt;br&gt;+ getgroup()&lt;br&gt;+ gethp_start()&lt;br&gt;+ getname()&lt;br&gt;+ setgroup(group)&lt;div&gt;+ getId()&lt;/div&gt;&lt;div&gt;+ getMaxPlayerCount()&lt;/div&gt;" style="text;strokeColor=none;fillColor=none;align=left;verticalAlign=top;spacingLeft=4;spacingRight=4;overflow=hidden;rotatable=0;points=[[0,0.5],[1,0.5]];portConstraint=eastwest;whiteSpace=wrap;html=1;" parent="DvSm5--Kq0vd1wlBUZNr-1" vertex="1">
          <mxGeometry y="128" width="180" height="152" as="geometry" />
        </mxCell>
        <mxCell id="DvSm5--Kq0vd1wlBUZNr-5" value="Player" style="swimlane;fontStyle=1;align=center;verticalAlign=top;childLayout=stackLayout;horizontal=1;startSize=26;horizontalStack=0;resizeParent=1;resizeParentMax=0;resizeLast=0;collapsible=1;marginBottom=0;whiteSpace=wrap;html=1;" parent="1" vertex="1">
          <mxGeometry x="43" y="456" width="170" height="510" as="geometry" />
        </mxCell>
        <mxCell id="DvSm5--Kq0vd1wlBUZNr-6" value="- currenthp: ganze Zahl&lt;br&gt;- isawake: Wahrheitswert&lt;br&gt;- isdead: Wahrheitswert&lt;br&gt;- ismayor: Wahrheitswert&lt;br&gt;- isvictim: Wahrheitswert&lt;br&gt;- name: Zeichenkette&lt;br&gt;- playervotesleft: ganze Zahl&lt;br&gt;- role&lt;br&gt;- votesforplayer: ganze Zahl" style="text;strokeColor=none;fillColor=none;align=left;verticalAlign=top;spacingLeft=4;spacingRight=4;overflow=hidden;rotatable=0;points=[[0,0.5],[1,0.5]];portConstraint=eastwest;whiteSpace=wrap;html=1;" parent="DvSm5--Kq0vd1wlBUZNr-5" vertex="1">
          <mxGeometry y="26" width="170" height="144" as="geometry" />
        </mxCell>
        <mxCell id="DvSm5--Kq0vd1wlBUZNr-7" value="" style="line;strokeWidth=1;fillColor=none;align=left;verticalAlign=middle;spacingTop=-1;spacingLeft=3;spacingRight=3;rotatable=0;labelPosition=right;points=[];portConstraint=eastwest;strokeColor=inherit;" parent="DvSm5--Kq0vd1wlBUZNr-5" vertex="1">
          <mxGeometry y="170" width="170" height="8" as="geometry" />
        </mxCell>
        <mxCell id="DvSm5--Kq0vd1wlBUZNr-8" value="+ __init__&lt;br&gt;+ __repr__&lt;br&gt;+ getcurrenthp&lt;br&gt;+ getisawake&lt;br&gt;+ getisdead&lt;br&gt;+ getismayor&lt;br&gt;+ getisvictim&lt;br&gt;+ getname&lt;br&gt;+ getrole&lt;br&gt;+ getvotesforplayer&lt;br&gt;+ getvotesleft&lt;br&gt;+ resetcurrenthp&lt;br&gt;+ resetvotesforplayer&lt;br&gt;+ setcurrenthp&lt;br&gt;+ setisawake&lt;br&gt;+ setisdead&lt;br&gt;+ setismayor&lt;br&gt;+ setisvictim&lt;br&gt;+ setname&lt;br&gt;+ setrole&lt;br&gt;+ setvotes&lt;br&gt;+ setvotesforplayer" style="text;strokeColor=none;fillColor=none;align=left;verticalAlign=top;spacingLeft=4;spacingRight=4;overflow=hidden;rotatable=0;points=[[0,0.5],[1,0.5]];portConstraint=eastwest;whiteSpace=wrap;html=1;" parent="DvSm5--Kq0vd1wlBUZNr-5" vertex="1">
          <mxGeometry y="178" width="170" height="332" as="geometry" />
        </mxCell>
        <mxCell id="DvSm5--Kq0vd1wlBUZNr-9" value="Button" style="swimlane;fontStyle=1;align=center;verticalAlign=top;childLayout=stackLayout;horizontal=1;startSize=26;horizontalStack=0;resizeParent=1;resizeParentMax=0;resizeLast=0;collapsible=1;marginBottom=0;whiteSpace=wrap;html=1;" parent="1" vertex="1">
          <mxGeometry x="643" y="680" width="160" height="200" as="geometry" />
        </mxCell>
        <mxCell id="DvSm5--Kq0vd1wlBUZNr-10" value="- color: Farbe&lt;br&gt;- height: ganze Zahl&lt;br&gt;- width: ganze Zahl&lt;div&gt;- text: Zeichekette&lt;br&gt;- x: ganze Zahl&lt;br&gt;- y: ganze Zahl&lt;/div&gt;" style="text;strokeColor=none;fillColor=none;align=left;verticalAlign=top;spacingLeft=4;spacingRight=4;overflow=hidden;rotatable=0;points=[[0,0.5],[1,0.5]];portConstraint=eastwest;whiteSpace=wrap;html=1;" parent="DvSm5--Kq0vd1wlBUZNr-9" vertex="1">
          <mxGeometry y="26" width="160" height="94" as="geometry" />
        </mxCell>
        <mxCell id="DvSm5--Kq0vd1wlBUZNr-11" value="" style="line;strokeWidth=1;fillColor=none;align=left;verticalAlign=middle;spacingTop=-1;spacingLeft=3;spacingRight=3;rotatable=0;labelPosition=right;points=[];portConstraint=eastwest;strokeColor=inherit;" parent="DvSm5--Kq0vd1wlBUZNr-9" vertex="1">
          <mxGeometry y="120" width="160" height="8" as="geometry" />
        </mxCell>
        <mxCell id="DvSm5--Kq0vd1wlBUZNr-12" value="+ __init__&lt;br&gt;+ draw(win, font, outline)&lt;br&gt;+ isOver(pos)&lt;br&gt;+ onClick(action)" style="text;strokeColor=none;fillColor=none;align=left;verticalAlign=top;spacingLeft=4;spacingRight=4;overflow=hidden;rotatable=0;points=[[0,0.5],[1,0.5]];portConstraint=eastwest;whiteSpace=wrap;html=1;" parent="DvSm5--Kq0vd1wlBUZNr-9" vertex="1">
          <mxGeometry y="128" width="160" height="72" as="geometry" />
        </mxCell>
        <mxCell id="DvSm5--Kq0vd1wlBUZNr-17" value="announcementtypes" style="swimlane;fontStyle=1;align=center;verticalAlign=top;childLayout=stackLayout;horizontal=1;startSize=26;horizontalStack=0;resizeParent=1;resizeParentMax=0;resizeLast=0;collapsible=1;marginBottom=0;whiteSpace=wrap;html=1;" parent="1" vertex="1">
          <mxGeometry x="203" y="1010" width="160" height="120" as="geometry" />
        </mxCell>
        <mxCell id="DvSm5--Kq0vd1wlBUZNr-18" value="+ alpha&lt;br&gt;+ hanging&lt;br&gt;+ hunter&lt;br&gt;+ lovers&lt;br&gt;+ mayor&lt;br&gt;+ werewolf" style="text;strokeColor=none;fillColor=none;align=left;verticalAlign=top;spacingLeft=4;spacingRight=4;overflow=hidden;rotatable=0;points=[[0,0.5],[1,0.5]];portConstraint=eastwest;whiteSpace=wrap;html=1;" parent="DvSm5--Kq0vd1wlBUZNr-17" vertex="1">
          <mxGeometry y="26" width="160" height="94" as="geometry" />
        </mxCell>
        <mxCell id="DvSm5--Kq0vd1wlBUZNr-21" value="windowtypes" style="swimlane;fontStyle=1;align=center;verticalAlign=top;childLayout=stackLayout;horizontal=1;startSize=26;horizontalStack=0;resizeParent=1;resizeParentMax=0;resizeLast=0;collapsible=1;marginBottom=0;whiteSpace=wrap;html=1;" parent="1" vertex="1">
          <mxGeometry x="423" y="870" width="160" height="110" as="geometry" />
        </mxCell>
        <mxCell id="DvSm5--Kq0vd1wlBUZNr-22" value="+ game&lt;br&gt;+ lobby&lt;br&gt;+ login&lt;br&gt;+ lose&lt;br&gt;+ win" style="text;strokeColor=none;fillColor=none;align=left;verticalAlign=top;spacingLeft=4;spacingRight=4;overflow=hidden;rotatable=0;points=[[0,0.5],[1,0.5]];portConstraint=eastwest;whiteSpace=wrap;html=1;" parent="DvSm5--Kq0vd1wlBUZNr-21" vertex="1">
          <mxGeometry y="26" width="160" height="84" as="geometry" />
        </mxCell>
        <mxCell id="DvSm5--Kq0vd1wlBUZNr-23" value="grouptypes" style="swimlane;fontStyle=1;align=center;verticalAlign=top;childLayout=stackLayout;horizontal=1;startSize=26;horizontalStack=0;resizeParent=1;resizeParentMax=0;resizeLast=0;collapsible=1;marginBottom=0;whiteSpace=wrap;html=1;" parent="1" vertex="1">
          <mxGeometry x="643" y="1010" width="160" height="130" as="geometry" />
        </mxCell>
        <mxCell id="DvSm5--Kq0vd1wlBUZNr-24" value="+ alpha&lt;br&gt;+ fluted&lt;br&gt;+ fluter&lt;br&gt;+ lovers&lt;br&gt;+ villager&lt;br&gt;+ werewolf" style="text;strokeColor=none;fillColor=none;align=left;verticalAlign=top;spacingLeft=4;spacingRight=4;overflow=hidden;rotatable=0;points=[[0,0.5],[1,0.5]];portConstraint=eastwest;whiteSpace=wrap;html=1;" parent="DvSm5--Kq0vd1wlBUZNr-23" vertex="1">
          <mxGeometry y="26" width="160" height="104" as="geometry" />
        </mxCell>
        <mxCell id="DvSm5--Kq0vd1wlBUZNr-25" value="Enum" style="html=1;whiteSpace=wrap;" parent="1" vertex="1">
          <mxGeometry x="453" y="1050" width="100" height="40" as="geometry" />
        </mxCell>
        <mxCell id="DvSm5--Kq0vd1wlBUZNr-34" value="Hunter" style="swimlane;fontStyle=1;align=center;verticalAlign=top;childLayout=stackLayout;horizontal=1;startSize=26;horizontalStack=0;resizeParent=1;resizeParentMax=0;resizeLast=0;collapsible=1;marginBottom=0;whiteSpace=wrap;html=1;" parent="1" vertex="1">
          <mxGeometry x="633" y="250" width="160" height="70" as="geometry" />
        </mxCell>
        <mxCell id="DvSm5--Kq0vd1wlBUZNr-37" value="+ __init__&lt;br&gt;+ __repr__" style="text;strokeColor=none;fillColor=none;align=left;verticalAlign=top;spacingLeft=4;spacingRight=4;overflow=hidden;rotatable=0;points=[[0,0.5],[1,0.5]];portConstraint=eastwest;whiteSpace=wrap;html=1;" parent="DvSm5--Kq0vd1wlBUZNr-34" vertex="1">
          <mxGeometry y="26" width="160" height="44" as="geometry" />
        </mxCell>
        <mxCell id="DvSm5--Kq0vd1wlBUZNr-38" value="Werewolf" style="swimlane;fontStyle=1;align=center;verticalAlign=top;childLayout=stackLayout;horizontal=1;startSize=26;horizontalStack=0;resizeParent=1;resizeParentMax=0;resizeLast=0;collapsible=1;marginBottom=0;whiteSpace=wrap;html=1;" parent="1" vertex="1">
          <mxGeometry x="53" y="250" width="160" height="70" as="geometry" />
        </mxCell>
        <mxCell id="DvSm5--Kq0vd1wlBUZNr-39" value="+ __init__&lt;br&gt;+ __repr__" style="text;strokeColor=none;fillColor=none;align=left;verticalAlign=top;spacingLeft=4;spacingRight=4;overflow=hidden;rotatable=0;points=[[0,0.5],[1,0.5]];portConstraint=eastwest;whiteSpace=wrap;html=1;" parent="DvSm5--Kq0vd1wlBUZNr-38" vertex="1">
          <mxGeometry y="26" width="160" height="44" as="geometry" />
        </mxCell>
        <mxCell id="DvSm5--Kq0vd1wlBUZNr-40" value="Alpha" style="swimlane;fontStyle=1;align=center;verticalAlign=top;childLayout=stackLayout;horizontal=1;startSize=26;horizontalStack=0;resizeParent=1;resizeParentMax=0;resizeLast=0;collapsible=1;marginBottom=0;whiteSpace=wrap;html=1;" parent="1" vertex="1">
          <mxGeometry x="343" y="20" width="160" height="70" as="geometry" />
        </mxCell>
        <mxCell id="DvSm5--Kq0vd1wlBUZNr-41" value="+ __init__&lt;br&gt;+ __repr__" style="text;strokeColor=none;fillColor=none;align=left;verticalAlign=top;spacingLeft=4;spacingRight=4;overflow=hidden;rotatable=0;points=[[0,0.5],[1,0.5]];portConstraint=eastwest;whiteSpace=wrap;html=1;" parent="DvSm5--Kq0vd1wlBUZNr-40" vertex="1">
          <mxGeometry y="26" width="160" height="44" as="geometry" />
        </mxCell>
        <mxCell id="DvSm5--Kq0vd1wlBUZNr-42" value="Villager" style="swimlane;fontStyle=1;align=center;verticalAlign=top;childLayout=stackLayout;horizontal=1;startSize=26;horizontalStack=0;resizeParent=1;resizeParentMax=0;resizeLast=0;collapsible=1;marginBottom=0;whiteSpace=wrap;html=1;" parent="1" vertex="1">
          <mxGeometry x="53" y="170" width="160" height="70" as="geometry" />
        </mxCell>
        <mxCell id="DvSm5--Kq0vd1wlBUZNr-43" value="+ __init__&lt;br&gt;+ __repr__" style="text;strokeColor=none;fillColor=none;align=left;verticalAlign=top;spacingLeft=4;spacingRight=4;overflow=hidden;rotatable=0;points=[[0,0.5],[1,0.5]];portConstraint=eastwest;whiteSpace=wrap;html=1;" parent="DvSm5--Kq0vd1wlBUZNr-42" vertex="1">
          <mxGeometry y="26" width="160" height="44" as="geometry" />
        </mxCell>
        <mxCell id="DvSm5--Kq0vd1wlBUZNr-44" value="Tree" style="swimlane;fontStyle=1;align=center;verticalAlign=top;childLayout=stackLayout;horizontal=1;startSize=26;horizontalStack=0;resizeParent=1;resizeParentMax=0;resizeLast=0;collapsible=1;marginBottom=0;whiteSpace=wrap;html=1;" parent="1" vertex="1">
          <mxGeometry x="633" y="170" width="160" height="70" as="geometry" />
        </mxCell>
        <mxCell id="DvSm5--Kq0vd1wlBUZNr-45" value="+ __init__&lt;br&gt;+ __repr__" style="text;strokeColor=none;fillColor=none;align=left;verticalAlign=top;spacingLeft=4;spacingRight=4;overflow=hidden;rotatable=0;points=[[0,0.5],[1,0.5]];portConstraint=eastwest;whiteSpace=wrap;html=1;" parent="DvSm5--Kq0vd1wlBUZNr-44" vertex="1">
          <mxGeometry y="26" width="160" height="44" as="geometry" />
        </mxCell>
        <mxCell id="DvSm5--Kq0vd1wlBUZNr-46" value="Seer" style="swimlane;fontStyle=1;align=center;verticalAlign=top;childLayout=stackLayout;horizontal=1;startSize=26;horizontalStack=0;resizeParent=1;resizeParentMax=0;resizeLast=0;collapsible=1;marginBottom=0;whiteSpace=wrap;html=1;" parent="1" vertex="1">
          <mxGeometry x="53" y="330" width="160" height="70" as="geometry" />
        </mxCell>
        <mxCell id="DvSm5--Kq0vd1wlBUZNr-47" value="+ __init__&lt;br&gt;+ __repr__" style="text;strokeColor=none;fillColor=none;align=left;verticalAlign=top;spacingLeft=4;spacingRight=4;overflow=hidden;rotatable=0;points=[[0,0.5],[1,0.5]];portConstraint=eastwest;whiteSpace=wrap;html=1;" parent="DvSm5--Kq0vd1wlBUZNr-46" vertex="1">
          <mxGeometry y="26" width="160" height="44" as="geometry" />
        </mxCell>
        <mxCell id="DvSm5--Kq0vd1wlBUZNr-48" value="Littlegirl" style="swimlane;fontStyle=1;align=center;verticalAlign=top;childLayout=stackLayout;horizontal=1;startSize=26;horizontalStack=0;resizeParent=1;resizeParentMax=0;resizeLast=0;collapsible=1;marginBottom=0;whiteSpace=wrap;html=1;" parent="1" vertex="1">
          <mxGeometry x="633" y="330" width="160" height="70" as="geometry" />
        </mxCell>
        <mxCell id="DvSm5--Kq0vd1wlBUZNr-49" value="+ __init__&lt;br&gt;+ __repr__" style="text;strokeColor=none;fillColor=none;align=left;verticalAlign=top;spacingLeft=4;spacingRight=4;overflow=hidden;rotatable=0;points=[[0,0.5],[1,0.5]];portConstraint=eastwest;whiteSpace=wrap;html=1;" parent="DvSm5--Kq0vd1wlBUZNr-48" vertex="1">
          <mxGeometry y="26" width="160" height="44" as="geometry" />
        </mxCell>
        <mxCell id="DvSm5--Kq0vd1wlBUZNr-50" value="Witch" style="swimlane;fontStyle=1;align=center;verticalAlign=top;childLayout=stackLayout;horizontal=1;startSize=26;horizontalStack=0;resizeParent=1;resizeParentMax=0;resizeLast=0;collapsible=1;marginBottom=0;whiteSpace=wrap;html=1;" parent="1" vertex="1">
          <mxGeometry x="423" y="510" width="170" height="140" as="geometry" />
        </mxCell>
        <mxCell id="DvSm5--Kq0vd1wlBUZNr-51" value="- awakens: Wahrheitswert&lt;br&gt;- hasHealed: Wahrheitswert&lt;br&gt;- hasKilled: Wahrheitswert" style="text;strokeColor=none;fillColor=none;align=left;verticalAlign=top;spacingLeft=4;spacingRight=4;overflow=hidden;rotatable=0;points=[[0,0.5],[1,0.5]];portConstraint=eastwest;whiteSpace=wrap;html=1;" parent="DvSm5--Kq0vd1wlBUZNr-50" vertex="1">
          <mxGeometry y="26" width="170" height="54" as="geometry" />
        </mxCell>
        <mxCell id="DvSm5--Kq0vd1wlBUZNr-52" value="" style="line;strokeWidth=1;fillColor=none;align=left;verticalAlign=middle;spacingTop=-1;spacingLeft=3;spacingRight=3;rotatable=0;labelPosition=right;points=[];portConstraint=eastwest;strokeColor=inherit;" parent="DvSm5--Kq0vd1wlBUZNr-50" vertex="1">
          <mxGeometry y="80" width="170" height="8" as="geometry" />
        </mxCell>
        <mxCell id="DvSm5--Kq0vd1wlBUZNr-53" value="+ __init__&lt;br&gt;+ __repr__&lt;br&gt;+ sethealed(boolean&lt;span style=&quot;background-color: initial;&quot;&gt;)&lt;/span&gt;" style="text;strokeColor=none;fillColor=none;align=left;verticalAlign=top;spacingLeft=4;spacingRight=4;overflow=hidden;rotatable=0;points=[[0,0.5],[1,0.5]];portConstraint=eastwest;whiteSpace=wrap;html=1;" parent="DvSm5--Kq0vd1wlBUZNr-50" vertex="1">
          <mxGeometry y="88" width="170" height="52" as="geometry" />
        </mxCell>
        <mxCell id="DvSm5--Kq0vd1wlBUZNr-54" value="Armor" style="swimlane;fontStyle=1;align=center;verticalAlign=top;childLayout=stackLayout;horizontal=1;startSize=26;horizontalStack=0;resizeParent=1;resizeParentMax=0;resizeLast=0;collapsible=1;marginBottom=0;whiteSpace=wrap;html=1;" parent="1" vertex="1">
          <mxGeometry x="234" y="510" width="180" height="120" as="geometry" />
        </mxCell>
        <mxCell id="DvSm5--Kq0vd1wlBUZNr-55" value="- awakens: Wahrheitswert&lt;br&gt;- hasCoupled : Wahrheitswert" style="text;strokeColor=none;fillColor=none;align=left;verticalAlign=top;spacingLeft=4;spacingRight=4;overflow=hidden;rotatable=0;points=[[0,0.5],[1,0.5]];portConstraint=eastwest;whiteSpace=wrap;html=1;" parent="DvSm5--Kq0vd1wlBUZNr-54" vertex="1">
          <mxGeometry y="26" width="180" height="44" as="geometry" />
        </mxCell>
        <mxCell id="DvSm5--Kq0vd1wlBUZNr-56" value="" style="line;strokeWidth=1;fillColor=none;align=left;verticalAlign=middle;spacingTop=-1;spacingLeft=3;spacingRight=3;rotatable=0;labelPosition=right;points=[];portConstraint=eastwest;strokeColor=inherit;" parent="DvSm5--Kq0vd1wlBUZNr-54" vertex="1">
          <mxGeometry y="70" width="180" height="8" as="geometry" />
        </mxCell>
        <mxCell id="DvSm5--Kq0vd1wlBUZNr-57" value="+ __init__&lt;br&gt;+ __repr__" style="text;strokeColor=none;fillColor=none;align=left;verticalAlign=top;spacingLeft=4;spacingRight=4;overflow=hidden;rotatable=0;points=[[0,0.5],[1,0.5]];portConstraint=eastwest;whiteSpace=wrap;html=1;" parent="DvSm5--Kq0vd1wlBUZNr-54" vertex="1">
          <mxGeometry y="78" width="180" height="42" as="geometry" />
        </mxCell>
        <mxCell id="DvSm5--Kq0vd1wlBUZNr-60" value="" style="endArrow=block;endSize=16;endFill=0;html=1;rounded=0;" parent="1" edge="1">
          <mxGeometry x="0.5" width="160" relative="1" as="geometry">
            <mxPoint x="213" y="205" as="sourcePoint" />
            <mxPoint x="333" y="204.65999999999997" as="targetPoint" />
            <mxPoint as="offset" />
          </mxGeometry>
        </mxCell>
        <mxCell id="DvSm5--Kq0vd1wlBUZNr-62" value="" style="endArrow=block;endSize=16;endFill=0;html=1;rounded=0;" parent="1" edge="1">
          <mxGeometry x="0.5" width="160" relative="1" as="geometry">
            <mxPoint x="213" y="285" as="sourcePoint" />
            <mxPoint x="333" y="284.65999999999997" as="targetPoint" />
            <mxPoint as="offset" />
          </mxGeometry>
        </mxCell>
        <mxCell id="DvSm5--Kq0vd1wlBUZNr-63" value="" style="endArrow=block;endSize=16;endFill=0;html=1;rounded=0;" parent="1" edge="1">
          <mxGeometry x="0.5" width="160" relative="1" as="geometry">
            <mxPoint x="213" y="365" as="sourcePoint" />
            <mxPoint x="333" y="364.65999999999997" as="targetPoint" />
            <mxPoint as="offset" />
          </mxGeometry>
        </mxCell>
        <mxCell id="DvSm5--Kq0vd1wlBUZNr-64" value="" style="endArrow=block;endSize=16;endFill=0;html=1;rounded=0;" parent="1" edge="1">
          <mxGeometry x="0.5" width="160" relative="1" as="geometry">
            <mxPoint x="633" y="204.50000000000003" as="sourcePoint" />
            <mxPoint x="513" y="204.4966666666668" as="targetPoint" />
            <mxPoint as="offset" />
          </mxGeometry>
        </mxCell>
        <mxCell id="DvSm5--Kq0vd1wlBUZNr-65" value="" style="endArrow=block;endSize=16;endFill=0;html=1;rounded=0;" parent="1" edge="1">
          <mxGeometry x="0.5" width="160" relative="1" as="geometry">
            <mxPoint x="633" y="284.72" as="sourcePoint" />
            <mxPoint x="513" y="284.7166666666668" as="targetPoint" />
            <mxPoint as="offset" />
          </mxGeometry>
        </mxCell>
        <mxCell id="DvSm5--Kq0vd1wlBUZNr-66" value="" style="endArrow=block;endSize=16;endFill=0;html=1;rounded=0;" parent="1" edge="1">
          <mxGeometry x="0.5" width="160" relative="1" as="geometry">
            <mxPoint x="633" y="364.72" as="sourcePoint" />
            <mxPoint x="513" y="364.7166666666668" as="targetPoint" />
            <mxPoint as="offset" />
          </mxGeometry>
        </mxCell>
        <mxCell id="DvSm5--Kq0vd1wlBUZNr-67" value="" style="endArrow=block;endSize=16;endFill=0;html=1;rounded=0;" parent="1" edge="1">
          <mxGeometry x="0.5" width="160" relative="1" as="geometry">
            <mxPoint x="422" y="90" as="sourcePoint" />
            <mxPoint x="422" y="160" as="targetPoint" />
            <mxPoint as="offset" />
          </mxGeometry>
        </mxCell>
        <mxCell id="DvSm5--Kq0vd1wlBUZNr-68" value="" style="endArrow=block;endSize=16;endFill=0;html=1;rounded=0;" parent="1" edge="1">
          <mxGeometry x="0.5" width="160" relative="1" as="geometry">
            <mxPoint x="373" y="510" as="sourcePoint" />
            <mxPoint x="373" y="440" as="targetPoint" />
            <mxPoint as="offset" />
          </mxGeometry>
        </mxCell>
        <mxCell id="DvSm5--Kq0vd1wlBUZNr-69" value="" style="endArrow=block;endSize=16;endFill=0;html=1;rounded=0;" parent="1" edge="1">
          <mxGeometry x="0.5" width="160" relative="1" as="geometry">
            <mxPoint x="453" y="510" as="sourcePoint" />
            <mxPoint x="453" y="440" as="targetPoint" />
            <mxPoint as="offset" />
            <Array as="points">
              <mxPoint x="453" y="510" />
            </Array>
          </mxGeometry>
        </mxCell>
        <mxCell id="DvSm5--Kq0vd1wlBUZNr-70" value="" style="endArrow=block;endSize=16;endFill=0;html=1;rounded=0;" parent="1" edge="1">
          <mxGeometry x="0.5" width="160" relative="1" as="geometry">
            <mxPoint x="363" y="1069.58" as="sourcePoint" />
            <mxPoint x="453" y="1070.08" as="targetPoint" />
            <mxPoint as="offset" />
          </mxGeometry>
        </mxCell>
        <mxCell id="DvSm5--Kq0vd1wlBUZNr-71" value="" style="endArrow=block;endSize=16;endFill=0;html=1;rounded=0;" parent="1" edge="1">
          <mxGeometry x="0.5" width="160" relative="1" as="geometry">
            <mxPoint x="643" y="1069.58" as="sourcePoint" />
            <mxPoint x="553" y="1070.4099999999999" as="targetPoint" />
            <mxPoint as="offset" />
          </mxGeometry>
        </mxCell>
        <mxCell id="DvSm5--Kq0vd1wlBUZNr-74" value="" style="endArrow=block;endSize=16;endFill=0;html=1;rounded=0;" parent="1" edge="1">
          <mxGeometry x="0.5" width="160" relative="1" as="geometry">
            <mxPoint x="502.79999999999995" y="980" as="sourcePoint" />
            <mxPoint x="502.79999999999995" y="1050" as="targetPoint" />
            <mxPoint as="offset" />
          </mxGeometry>
        </mxCell>
        <mxCell id="QfLudtF3nOd5gRT8PIEG-2" value="" style="endArrow=open;html=1;endSize=12;startArrow=diamondThin;startSize=14;startFill=0;edgeStyle=orthogonalEdgeStyle;align=left;verticalAlign=bottom;rounded=0;entryX=0.987;entryY=0.019;entryDx=0;entryDy=0;entryPerimeter=0;" edge="1" parent="1">
          <mxGeometry x="-1" y="3" relative="1" as="geometry">
            <mxPoint x="335.08" y="440" as="sourcePoint" />
            <mxPoint x="213.00000000000003" y="479.68999999999994" as="targetPoint" />
            <Array as="points">
              <mxPoint x="335.08" y="480" />
            </Array>
            <mxPoint as="offset" />
          </mxGeometry>
        </mxCell>
        <mxCell id="QfLudtF3nOd5gRT8PIEG-3" value="0..*" style="text;html=1;align=center;verticalAlign=middle;resizable=0;points=[];autosize=1;strokeColor=none;fillColor=none;" vertex="1" parent="1">
          <mxGeometry x="220" y="456" width="40" height="30" as="geometry" />
        </mxCell>
        <mxCell id="QfLudtF3nOd5gRT8PIEG-4" value="1" style="text;html=1;align=center;verticalAlign=middle;resizable=0;points=[];autosize=1;strokeColor=none;fillColor=none;" vertex="1" parent="1">
          <mxGeometry x="307" y="434" width="30" height="30" as="geometry" />
        </mxCell>
      </root>
    </mxGraphModel>
  </diagram>
</mxfile>
